HIERARCHY
ROOT joint_Root
{
	OFFSET 0.0 0.0 0.0
	CHANNELS 6 Xposition Yposition Zposition Zrotation Xrotation Yrotation 
	JOINT Hips
	{
		OFFSET -0.726466 93.3139 -2.00062
		CHANNELS 6 Xposition Yposition Zposition Zrotation Xrotation Yrotation 
		JOINT Spine
		{
			OFFSET 15.7357 0.0 0.0
			CHANNELS 6 Xposition Yposition Zposition Zrotation Xrotation Yrotation 
			JOINT Chest
			{
				OFFSET 8.98455 -0.406207 0.0
				CHANNELS 6 Xposition Yposition Zposition Zrotation Xrotation Yrotation 
				JOINT Neck
				{
					OFFSET 16.3773 0.0 0.0
					CHANNELS 6 Xposition Yposition Zposition Zrotation Xrotation Yrotation 
					JOINT Head
					{
						OFFSET 6.45672 0.0 0.0
						CHANNELS 6 Xposition Yposition Zposition Zrotation Xrotation Yrotation 
						End Site
						{
							OFFSET 0.0 0.0 0.0
						}
					}
				}
				JOINT Shoulder_L
				{
					OFFSET 12.9942 -0.242716 4.98039
					CHANNELS 6 Xposition Yposition Zposition Zrotation Xrotation Yrotation 
					JOINT UpperArm_L
					{
						OFFSET 5.34809 0.0 0.0
						CHANNELS 6 Xposition Yposition Zposition Zrotation Xrotation Yrotation 
						JOINT LowerArm_L
						{
							OFFSET 24.3286 1.87007e-05 0.0
							CHANNELS 6 Xposition Yposition Zposition Zrotation Xrotation Yrotation 
							JOINT Hand_L
							{
								OFFSET 22.2916 0.0 0.0
								CHANNELS 6 Xposition Yposition Zposition Zrotation Xrotation Yrotation 
								End Site
								{
									OFFSET 0.0 0.0 0.0
								}
							}
						}
					}
				}
				JOINT Shoulder_R
				{
					OFFSET 12.9945 -0.242716 -4.98039
					CHANNELS 6 Xposition Yposition Zposition Zrotation Xrotation Yrotation 
					JOINT UpperArm_R
					{
						OFFSET -5.34813 0.0 0.0
						CHANNELS 6 Xposition Yposition Zposition Zrotation Xrotation Yrotation 
						JOINT LowerArm_R
						{
							OFFSET -24.3289 0.000322201 0.0
							CHANNELS 6 Xposition Yposition Zposition Zrotation Xrotation Yrotation 
							JOINT Hand_R
							{
								OFFSET -22.2915 -0.000108084 0.0
								CHANNELS 6 Xposition Yposition Zposition Zrotation Xrotation Yrotation 
								End Site
								{
									OFFSET 0.0 0.0 0.0
								}
							}
						}
					}
				}
			}
		}
		JOINT UpperLeg_L
		{
			OFFSET -2.19248 -6.46944 0.0
			CHANNELS 6 Xposition Yposition Zposition Zrotation Xrotation Yrotation 
			JOINT LowerLeg_L
			{
				OFFSET 39.0811 0.0 -1.23785e-05
				CHANNELS 6 Xposition Yposition Zposition Zrotation Xrotation Yrotation 
				JOINT Foot_L
				{
					OFFSET 40.9854 0.0 -1.26872e-05
					CHANNELS 6 Xposition Yposition Zposition Zrotation Xrotation Yrotation 
					JOINT Toes_L
					{
						OFFSET 11.7543 0.0 0.0
						CHANNELS 6 Xposition Yposition Zposition Zrotation Xrotation Yrotation 
						End Site
						{
							OFFSET 0.0 0.0 0.0
						}
					}
				}
			}
		}
		JOINT UpperLeg_R
		{
			OFFSET -2.19251 6.46944 0.0
			CHANNELS 6 Xposition Yposition Zposition Zrotation Xrotation Yrotation 
			JOINT LowerLeg_R
			{
				OFFSET -39.0811 -0.00228153 -0.0401928
				CHANNELS 6 Xposition Yposition Zposition Zrotation Xrotation Yrotation 
				JOINT Foot_R
				{
					OFFSET -40.9854 0.0 0.0
					CHANNELS 6 Xposition Yposition Zposition Zrotation Xrotation Yrotation 
					JOINT Toes_R
					{
						OFFSET -11.7543 0.0 0.0
						CHANNELS 6 Xposition Yposition Zposition Zrotation Xrotation Yrotation 
						End Site
						{
							OFFSET 0.0 0.0 0.0
						}
					}
				}
			}
		}
	}
}
MOTION
Frames:	6
Frame Time:	0.0333333
0.000000 0.000000 0.000000 0.000000 0.000000 -0.000000 143.373000 90.448400 142.645000 86.679700 -43.852700 1.848630 15.735700 0.000005 -0.000001 83.387900 81.478600 -84.088000 8.984550 -0.406207 -0.000000 9.155770 -1.960300 -1.242160 16.377300 -0.000001 -0.000001 8.016150 -11.182200 1.860070 6.456720 -0.000001 -0.000000 2.659470 -17.372600 13.258300 12.994200 -0.242716 4.980390 -88.510800 -3.551150 -67.230800 5.348090 -0.000007 -0.000001 -50.918400 29.795800 -17.445700 24.328600 0.000019 0.000005 5.669100 6.110050 -43.003700 22.291600 -0.000001 0.000005 3.833320 5.547480 -8.588150 12.994500 -0.242716 -4.980390 88.773800 2.869240 -66.847900 -5.348130 -0.000001 -0.000004 -66.320700 32.899600 -6.420390 -24.328900 0.000322 -0.000009 3.280610 4.882020 -33.970300 -22.291500 -0.000108 -0.000004 0.837780 5.559520 -9.163340 -2.192480 -6.469440 -0.000000 -168.260000 -14.041900 -7.811090 39.081100 -0.000007 -0.000012 -0.192934 0.314304 31.543800 40.985400 -0.000006 -0.000013 -7.875920 -1.499640 -67.656200 11.754300 -0.000000 0.000003 -0.000200 -0.001855 -16.647500 -2.192510 6.469440 -0.000001 177.144000 8.883940 163.202000 -39.081100 -0.002282 -0.040193 0.305293 -0.144373 64.459000 -40.985400 0.000008 0.000006 8.022480 -4.172960 -51.307500 -11.754300 -0.000006 -0.000006 -0.024065 -0.188847 -24.297200
0.000000 0.000000 0.000000 0.000000 0.000000 -0.000000 142.422000 90.950900 144.623000 85.851100 -45.037800 0.767670 15.735700 0.000005 -0.000001 79.534400 81.496900 -79.899800 8.984550 -0.406207 -0.000000 8.957130 -3.076820 -0.489167 16.377300 -0.000001 -0.000001 7.878310 -11.134100 1.731650 6.456720 -0.000001 -0.000000 2.412010 -16.098600 13.277000 12.994200 -0.242716 4.980390 -88.512500 -3.669710 -67.917300 5.348090 -0.000007 -0.000001 -48.934700 28.519600 -20.392200 24.328600 0.000019 0.000005 6.039280 6.231380 -44.265500 22.291600 -0.000001 0.000005 4.152090 5.548410 -8.631210 12.994500 -0.242716 -4.980390 88.786200 2.751310 -66.182700 -5.348130 -0.000001 -0.000004 -67.485400 32.190000 -3.710820 -24.328900 0.000322 -0.000009 3.195070 4.786340 -33.792000 -22.291500 -0.000108 -0.000004 0.697082 5.562580 -9.314360 -2.192480 -6.469440 -0.000000 -167.850000 -15.108800 -4.884470 39.081100 -0.000007 -0.000012 -0.170403 0.313043 28.561700 40.985400 -0.000006 -0.000013 -7.856120 -1.769540 -67.918700 11.754300 -0.000000 0.000003 -0.000215 -0.001969 -16.651700 -2.192510 6.469440 -0.000001 179.035000 13.211700 160.450000 -39.081100 -0.002282 -0.040193 0.262905 -0.150673 59.879100 -40.985400 0.000008 0.000006 6.366870 -0.633400 -53.356500 -11.754300 -0.000006 -0.000006 -0.023767 -0.187324 -24.234300
0.000000 0.000000 0.000000 0.000000 0.000000 -0.000000 141.501000 91.251000 146.495000 85.199300 -46.310700 -0.354764 15.735700 0.000005 -0.000001 76.666000 81.482400 -76.715700 8.984550 -0.406207 -0.000000 8.823400 -3.909330 0.202391 16.377300 -0.000001 -0.000001 7.632900 -11.009200 1.882940 6.456720 -0.000001 -0.000000 2.068880 -15.288200 13.162200 12.994200 -0.242716 4.980390 -88.502500 -3.801650 -68.481300 5.348090 -0.000007 -0.000001 -46.963700 27.106100 -23.669500 24.328600 0.000019 0.000005 6.746180 6.677100 -45.491800 22.291600 -0.000001 0.000005 4.578670 5.547380 -8.582790 12.994500 -0.242716 -4.980390 88.733400 2.764010 -65.369400 -5.348130 -0.000001 -0.000004 -67.982700 31.384900 -1.611370 -24.328900 0.000322 -0.000009 3.275050 4.931530 -33.658500 -22.291500 -0.000108 -0.000004 0.547791 5.564530 -9.411380 -2.192480 -6.469440 -0.000000 -167.647000 -16.109500 -2.415710 39.081100 -0.000007 -0.000012 -0.158140 0.323838 26.027900 40.985400 -0.000006 -0.000013 -7.924850 -2.248610 -68.333400 11.754300 -0.000000 0.000003 -0.000245 -0.002194 -16.659800 -2.192510 6.469440 -0.000001 -178.688000 17.047500 158.075000 -39.081100 -0.002282 -0.040193 0.193757 -0.142027 53.297100 -40.985400 0.000008 0.000006 5.076230 2.125630 -54.964100 -11.754300 -0.000006 -0.000006 -0.023910 -0.188055 -24.264500
0.000000 0.000000 0.000000 0.000000 0.000000 -0.000000 140.550000 91.350900 148.274000 84.761600 -47.730700 -1.534710 15.735700 0.000005 -0.000001 74.203700 81.532500 -73.993400 8.984550 -0.406207 -0.000000 8.558350 -4.586440 0.763789 16.377300 -0.000001 -0.000001 7.568120 -10.906000 1.981060 6.456720 -0.000001 -0.000000 1.717840 -14.441700 13.114700 12.994200 -0.242716 4.980390 -88.494700 -3.895990 -68.855600 5.348090 -0.000007 -0.000001 -45.084800 25.579800 -26.725500 24.328600 0.000019 0.000005 7.232690 6.816460 -46.916500 22.291600 -0.000001 0.000005 4.714750 5.548300 -8.626100 12.994500 -0.242716 -4.980390 88.675500 2.827320 -64.886300 -5.348130 -0.000001 -0.000004 -68.355000 30.224600 0.417628 -24.328900 0.000322 -0.000009 3.466370 5.235320 -33.586500 -22.291500 -0.000108 -0.000004 0.728937 5.558630 -9.119850 -2.192480 -6.469440 -0.000000 -167.737000 -16.836700 -0.440434 39.081100 -0.000007 -0.000012 -0.148813 0.333948 24.018700 40.985400 -0.000006 -0.000013 -8.145240 -3.120480 -69.033500 11.754300 -0.000000 0.000003 -0.000240 -0.002160 -16.658600 -2.192510 6.469440 -0.000001 -176.027000 20.113000 156.061000 -39.081100 -0.002282 -0.040193 0.117881 -0.114753 44.966000 -40.985400 0.000008 0.000006 4.318070 3.589940 -56.179500 -11.754300 -0.000006 -0.000006 -0.022877 -0.182733 -24.044700
0.000000 0.000000 0.000000 0.000000 0.000000 -0.000000 139.492000 91.151900 149.962000 84.618400 -49.146200 -2.655540 15.735700 0.000005 -0.000001 72.077800 81.615700 -71.670300 8.984550 -0.406207 -0.000000 8.232020 -5.135340 1.184350 16.377300 -0.000001 -0.000001 7.460950 -10.719800 2.102600 6.456720 -0.000001 -0.000000 1.474980 -13.772400 13.058200 12.994200 -0.242716 4.980390 -88.481200 -3.990770 -69.143700 5.348090 -0.000007 -0.000001 -43.416900 23.994700 -29.458800 24.328600 0.000019 0.000005 7.497020 6.646410 -48.668000 22.291600 -0.000001 0.000005 4.964300 5.548520 -8.636960 12.994500 -0.242716 -4.980390 88.634200 2.857840 -64.443500 -5.348130 -0.000001 -0.000004 -68.698800 29.135300 1.950180 -24.328900 0.000322 -0.000009 3.520270 5.453520 -32.923100 -22.291500 -0.000108 -0.000004 0.897562 5.558830 -9.129880 -2.192480 -6.469440 -0.000000 -167.942000 -17.945700 0.732760 39.081100 -0.000007 -0.000012 -0.157174 0.364814 23.308100 40.985400 -0.000006 -0.000013 -8.437190 -3.592900 -70.293300 11.754300 -0.000000 0.000003 -0.000261 -0.002313 -16.664100 -2.192510 6.469440 -0.000001 -172.941000 22.665300 154.212000 -39.081100 -0.002282 -0.040193 0.057889 -0.076805 35.408100 -40.985400 0.000008 0.000006 3.625230 3.571200 -56.212800 -11.754300 -0.000006 -0.000006 -0.023072 -0.183748 -24.086600
0.000000 0.000000 0.000000 0.000000 0.000000 -0.000000 138.252000 90.738000 151.665000 84.959400 -50.599000 -3.405840 15.735700 0.000005 -0.000001 70.163900 81.714300 -69.659900 8.984550 -0.406207 -0.000000 7.875300 -5.599360 1.393350 16.377300 -0.000001 -0.000001 7.380500 -10.526000 2.116600 6.456720 -0.000001 -0.000000 1.270680 -13.154700 13.106000 12.994200 -0.242716 4.980390 -88.429100 -4.165110 -69.314300 5.348090 -0.000007 -0.000001 -42.411000 22.294700 -31.667700 24.328600 0.000019 0.000005 7.678350 6.349630 -50.637400 22.291600 -0.000001 0.000005 5.145470 5.551260 -8.765620 12.994500 -0.242716 -4.980390 88.616200 2.860590 -64.171000 -5.348130 -0.000001 -0.000004 -69.078300 27.817500 3.289050 -24.328900 0.000322 -0.000009 3.573980 5.701560 -32.165300 -22.291500 -0.000108 -0.000004 0.786623 5.564460 -9.407940 -2.192480 -6.469440 -0.000000 -168.376000 -19.123400 1.800720 39.081100 -0.000007 -0.000012 -0.166091 0.389393 23.100200 40.985400 -0.000006 -0.000013 -8.806810 -3.779330 -71.901300 11.754300 -0.000000 0.000003 -0.000229 -0.002072 -16.655400 -2.192510 6.469440 -0.000001 -169.647000 25.185900 152.657000 -39.081100 -0.002282 -0.040193 0.021633 -0.038803 25.274800 -40.985400 0.000008 0.000006 2.193850 2.695760 -55.101400 -11.754300 -0.000006 -0.000006 -0.023634 -0.186647 -24.206300
